<svg id="Layer_1" data-name="Layer 1" xmlns="http://www.w3.org/2000/svg" viewBox="0 0 1000 300"><defs><style>.cls-1{fill:#557086;}</style></defs><path class="cls-1" d="M386.16,84.66h20.22q10.2,0,20.31.3t19.7.92l-.61,10.41H388.41q-6.74,0-10.31,3.68t-3.57,10.82v89q0,7.14,3.57,10.92t10.31,3.77h57.37l.61,10.21q-9.6.61-19.7.82t-20.31.31q-10.22.09-20.22.1-11.22,0-18.07-6.43t-6.83-16.85V107.93q0-10.61,6.83-16.94T386.16,84.66ZM364.73,145.5h72.88v10.82H364.73Z"/><path class="cls-1" d="M617.07,82.21q15.1,0,25.52,3.77a35.55,35.55,0,0,1,16.74,12.25q6.31,8.47,9.18,22.56t2.86,34.51q0,20.41-2.86,34.5t-9.18,22.56a35.48,35.48,0,0,1-16.74,12.25q-10.41,3.78-25.52,3.78t-25.52-3.78a35.46,35.46,0,0,1-16.75-12.25q-6.33-8.46-9.29-22.56t-3-34.5q0-20.42,3-34.51t9.29-22.56A35.53,35.53,0,0,1,591.55,86Q602,82.22,617.07,82.21Zm0,12q-15.12,0-24,5.82t-12.56,19.09q-3.67,13.28-3.67,36.14t3.67,36.13q3.68,13.27,12.56,19.09t24,5.82q15.1,0,23.88-5.82t12.56-19.09q3.78-13.26,3.78-36.13t-3.78-36.14Q649.73,105.9,641,100.07T617.07,94.25Z"/><path class="cls-1" d="M833.47,82.41q10,.21,20.21,1t20.42,2.66l-1,9.8q-9-.61-19.19-1t-19.81-.41q-8.37,0-14.39.61a24.64,24.64,0,0,0-9.9,2.86,12.86,12.86,0,0,0-5.62,7.35q-1.73,5.1-1.73,14.29,0,13.06,4.49,18.48t14.9,7.45l29.61,6.12q15.93,3.27,22.15,12.46t6.23,26.13q0,12.45-2.86,19.91a23.58,23.58,0,0,1-8.47,11.33,34.85,34.85,0,0,1-14.19,5.3,125,125,0,0,1-20.22,1.43q-7.35,0-18.17-.61a242.13,242.13,0,0,1-24.7-2.86l1-9.8q10.41.42,17.46.72t12.76.41q5.71.11,12,.1,11.84-.21,18.79-2t9.9-7.35q3-5.52,3-16.75,0-9.18-1.94-14.39a15.48,15.48,0,0,0-6.33-8,31.67,31.67,0,0,0-11.33-4l-30-6.33q-15.12-3.06-21.34-12.35T789,119.37q0-12.47,2.76-19.91t8.17-11.13a31.74,31.74,0,0,1,13.78-4.8A152.79,152.79,0,0,1,833.47,82.41Z"/><path class="cls-1" d="M194.17,256.93h0a7.25,7.25,0,0,1-2.2-.37l.05,0a6.56,6.56,0,0,1-1.3-.64l0,0-67.37-40.39a6.56,6.56,0,0,1-3.19-5.62,6.28,6.28,0,0,1,.21-1.63v0L144,110.61a5.89,5.89,0,0,1,1-2.17v0l44-64a6.89,6.89,0,0,1,10.89,0h0l43.95,64a5.89,5.89,0,0,1,1,2.11v0l23.6,97.75a6.66,6.66,0,0,1,.19,1.59,6.55,6.55,0,0,1-3.15,5.6l0,0L197.6,256a5.93,5.93,0,0,1-1.19.56h0a6.18,6.18,0,0,1-2.19.4Zm42.11-123.59L205.51,235.92l48.61-29.18Zm-102,73.4,48.61,29.18L152.16,133.34ZM159,111.1l35.16,116.38L229.33,111.1,194.17,59.85Z"/></svg>